<svg width="23" height="19" viewBox="0 0 23 19" fill="none" xmlns="http://www.w3.org/2000/svg"><path d="M-.05 3.678v11.643a2.969 2.969 0 0 0 2.963 2.964h9.41a2.969 2.969 0 0 0 2.963-2.963v-1.886a.627.627 0 1 0-1.254 0v1.886c0 .943-.77 1.713-1.713 1.713H2.913c-.943 0-1.714-.77-1.714-1.713V3.678c0-.943.77-1.713 1.714-1.713h9.41c.944 0 1.714.77 1.714 1.713v1.886a.627.627 0 1 0 1.254 0V3.678A2.969 2.969 0 0 0 12.328.715H2.913A2.966 2.966 0 0 0-.05 3.678z" fill="#fff" stroke="#fff" stroke-width=".1"/><path d="M18.044 13.875a.62.62 0 0 0 .443.183.622.622 0 0 0 .444-.184l3.935-3.935a.622.622 0 0 0 0-.882L18.931 5.12a.622.622 0 0 0-.883 0 .622.622 0 0 0 0 .882l2.87 2.87H10.255a.627.627 0 1 0 0 1.254h10.659l-2.87 2.87a.616.616 0 0 0 0 .878z" fill="#fff" stroke="#fff" stroke-width=".1"/></svg>