<svg xmlns="http://www.w3.org/2000/svg" width="463.708" height="463.707" viewBox="0 0 463.708 463.707"><path d="M432.771 351.013v-28.2a2.513 2.513 0 0 0-2.515-2.524 2.505 2.505 0 0 0-2.505 2.524v28.2a2.501 2.501 0 0 0 2.505 2.506 2.504 2.504 0 0 0 2.515-2.506z"/><path d="M229.569 231.816c-5.279 0-9.562 2.248-9.562 5.01 0 2.773 4.283 5.012 9.562 5.012h198.985c8.606 0 15.625 6.999 15.625 15.615v158.881c0 8.626-7.009 15.635-15.625 15.635H229.262c-5.278 0-9.562-2.228-9.562-4.973 0-2.744 4.284-4.973 9.562-4.973h180.712a2.51 2.51 0 0 0 2.516-2.505v-165.25a2.504 2.504 0 0 0-2.516-2.505H229.262c-5.278 0-9.562-4.284-9.562-9.562V111.329c0-14.133-11.504-25.646-25.656-25.646H35.163c-14.152 0-25.656 11.503-25.656 25.646v326.712c0 14.143 11.504 25.666 25.656 25.666h158.881c9.429 0 17.644-5.136 22.07-12.747 2.658-4.562 7.459-8.96 12.737-8.96h199.693c14.144 0 25.656-11.504 25.656-25.666V257.463c0-14.144-11.503-25.647-25.656-25.647H229.569zm-.307 24.968h168.654c5.278 0 9.562 4.283 9.562 9.562V407.47c0 5.278-4.284 9.562-9.562 9.562H229.262c-5.278 0-9.562-4.284-9.562-9.562V266.347a9.559 9.559 0 0 1 9.562-9.563zm-19.594 181.267c0 8.606-6.999 15.615-15.625 15.615H35.163c-8.606 0-15.625-7-15.625-15.615V111.329c0-8.606 7.009-15.616 15.625-15.616h158.881c8.616 0 15.625 7.01 15.625 15.616v326.722z"/><path d="M197.228 127.394H31.969a2.502 2.502 0 0 0-2.505 2.505v286.818c0 1.377 1.119 2.524 2.505 2.524h165.259a2.52 2.52 0 0 0 2.515-2.524V129.899a2.503 2.503 0 0 0-2.515-2.505zM185.16 414.211H44.046c-5.278 0-9.562-4.284-9.562-9.562V141.986c0-5.278 4.284-9.562 9.562-9.562H185.16c5.279 0 9.562 4.284 9.562 9.562v262.672c0 5.279-4.274 9.553-9.562 9.553zm-84.657-302.089h28.2a2.504 2.504 0 0 0 2.515-2.505 2.504 2.504 0 0 0-2.515-2.506h-28.2a2.504 2.504 0 0 0-2.515 2.506 2.51 2.51 0 0 0 2.515 2.505zm28.544 312.847h-28.888c-5.929 0-10.758 4.82-10.758 10.739v1.74c0 5.919 4.829 10.758 10.758 10.758h28.888c5.929 0 10.758-4.839 10.758-10.758v-1.74c0-5.92-4.829-10.739-10.758-10.739zm5.747 12.479c0 3.155-2.572 5.737-5.747 5.737h-28.888c-3.156 0-5.747-2.582-5.747-5.737v-1.74c0-3.156 2.591-5.737 5.747-5.737h28.888c3.175 0 5.747 2.581 5.747 5.737v1.74zm178.447-305.703c-.058.449 2.122 1.1 4.867 1.454 2.764.334 5.029.239 5.087-.201l.105-.841c3.643-29.251-3.815-58.666-20.99-82.831-9.084-12.775-20.444-23.438-33.717-31.661-44.781-27.808-102.109-22.147-140.55 12.498-2.754 2.467-7.21 2.783-10.136.526l-8.291-6.407c-2.936-2.257-4.924-1.119-4.446 2.543l3.423 26.574a6.672 6.672 0 0 0 7.478 5.786l26.574-3.414c3.663-.449 4.265-2.668 1.349-4.915l-7.497-5.805c-2.926-2.257-3.175-6.215-.392-8.645 35.142-30.59 86.77-35.314 127.219-10.231 12.145 7.544 22.511 17.298 30.83 28.984 15.721 22.108 22.538 49.008 19.221 75.773l-.134.813z"/></svg>